HIERARCHY
ROOT Hips
{
	OFFSET 0.000000 83.214638 0.000000
	CHANNELS 6 Xposition Yposition Zposition Xrotation Yrotation Zrotation
	JOINT Pelvis
	{
		OFFSET 0.000000 0.000000 0.000000
		CHANNELS 3 Xrotation Yrotation Zrotation
		JOINT LeftUpLeg
		{
			OFFSET 8.479700 -4.795502 -0.379100
			CHANNELS 3 Xrotation Yrotation Zrotation
			JOINT LeftLeg
			{
				OFFSET 0.024144 -32.555107 0.112900
				CHANNELS 3 Xrotation Yrotation Zrotation
				JOINT LeftFoot
				{
					OFFSET -0.024144 -32.638630 -3.012600
					CHANNELS 3 Xrotation Yrotation Zrotation
					JOINT LeftToeBase
					{
						OFFSET 0.970200 -13.225400 11.864200
						CHANNELS 3 Xrotation Yrotation Zrotation
						End Site
						{
							OFFSET 0.000000 12.319262 0.000000
						}
					}
					JOINT LFootTongue
					{
						OFFSET 1.142400 -1.059800 6.665200
						CHANNELS 3 Xrotation Yrotation Zrotation
						End Site
						{
							OFFSET 0.000000 12.319262 0.000000
						}
					}
				}
				JOINT LeftPantLeg
				{
					OFFSET 0.918482 -16.533964 -2.284700
					CHANNELS 3 Xrotation Yrotation Zrotation
					End Site
					{
						OFFSET 0.350399 24.744368 0.000000
					}
				}
			}
		}
		JOINT RightUpLeg
		{
			OFFSET -8.479700 -4.795502 -0.379100
			CHANNELS 3 Xrotation Yrotation Zrotation
			JOINT RightLeg
			{
				OFFSET -0.023144 -32.555092 0.112900
				CHANNELS 3 Xrotation Yrotation Zrotation
				JOINT RightFoot
				{
					OFFSET 0.023144 -32.638641 -3.012700
					CHANNELS 3 Xrotation Yrotation Zrotation
					JOINT RightToeBase
					{
						OFFSET -0.970200 -13.225400 11.864200
						CHANNELS 3 Xrotation Yrotation Zrotation
						End Site
						{
							OFFSET 0.000000 12.319244 0.000000
						}
					}
					JOINT RFootTongue
					{
						OFFSET -1.142200 -1.059800 6.665200
						CHANNELS 3 Xrotation Yrotation Zrotation
						End Site
						{
							OFFSET 0.000000 12.319243 0.000000
						}
					}
				}
				JOINT RightPantLeg
				{
					OFFSET -0.919482 -16.533978 -2.284800
					CHANNELS 3 Xrotation Yrotation Zrotation
					End Site
					{
						OFFSET -0.350400 24.744419 0.000000
					}
				}
			}
		}
	}
	JOINT Spine
	{
		OFFSET 0.000000 7.722000 1.166200
		CHANNELS 3 Xrotation Yrotation Zrotation
		JOINT Spine1
		{
			OFFSET 0.000000 12.024101 0.248800
			CHANNELS 3 Xrotation Yrotation Zrotation
			JOINT Spine2
			{
				OFFSET 0.000000 11.502998 -0.491200
				CHANNELS 3 Xrotation Yrotation Zrotation
				JOINT Neck
				{
					OFFSET 0.000000 18.430702 -3.123100
					CHANNELS 3 Xrotation Yrotation Zrotation
					JOINT Head
					{
						OFFSET 0.000000 9.051102 1.034000
						CHANNELS 3 Xrotation Yrotation Zrotation
						JOINT HairB
						{
							OFFSET 0.208400 24.786102 24.822300
							CHANNELS 3 Xrotation Yrotation Zrotation
							End Site
							{
								OFFSET 0.000000 32.263779 0.000000
							}
						}
						JOINT HairA
						{
							OFFSET -7.081100 24.428299 23.196600
							CHANNELS 3 Xrotation Yrotation Zrotation
							End Site
							{
								OFFSET 0.000000 32.263779 0.000000
							}
						}
						JOINT Hat
						{
							OFFSET 16.728800 15.048294 -15.439601
							CHANNELS 3 Xrotation Yrotation Zrotation
							End Site
							{
								OFFSET 0.000000 32.263779 0.000000
							}
						}
					}
				}
				JOINT LeftShoulder
				{
					OFFSET 6.197800 13.665199 -4.064700
					CHANNELS 3 Xrotation Yrotation Zrotation
					JOINT LeftArm
					{
						OFFSET 7.778100 -0.187103 -1.709300
						CHANNELS 3 Xrotation Yrotation Zrotation
						JOINT LeftForeArm
						{
							OFFSET 22.049376 0.000000 0.000000
							CHANNELS 3 Xrotation Yrotation Zrotation
							JOINT LeftHand
							{
								OFFSET 23.009392 0.000000 0.000000
								CHANNELS 3 Xrotation Yrotation Zrotation
								JOINT LeftHandThumb1
								{
									OFFSET 3.507191 -2.063065 3.133727
									CHANNELS 3 Xrotation Yrotation Zrotation
									JOINT LeftHandThumb2
									{
										OFFSET 3.101337 -1.790558 1.790558
										CHANNELS 3 Xrotation Yrotation Zrotation
										JOINT LeftHandThumb3
										{
											OFFSET 3.058640 -1.765907 1.765906
											CHANNELS 3 Xrotation Yrotation Zrotation
											End Site
											{
												OFFSET -0.415260 3.926476 -0.049563
											}
										}
									}
								}
								JOINT LeftHandIndex1
								{
									OFFSET 11.334419 -0.901459 3.706815
									CHANNELS 3 Xrotation Yrotation Zrotation
									JOINT LeftHandIndex2
									{
										OFFSET 3.283112 0.000000 0.000000
										CHANNELS 3 Xrotation Yrotation Zrotation
										JOINT LeftHandIndex3
										{
											OFFSET 3.323853 0.000000 0.000000
											CHANNELS 3 Xrotation Yrotation Zrotation
											End Site
											{
												OFFSET -1.135597 3.097809 0.402452
											}
										}
									}
								}
								JOINT LeftHandMiddle1
								{
									OFFSET 11.335861 0.000000 0.000000
									CHANNELS 3 Xrotation Yrotation Zrotation
									JOINT LeftHandMiddle2
									{
										OFFSET 3.410492 0.000000 0.000000
										CHANNELS 3 Xrotation Yrotation Zrotation
										JOINT LeftHandMiddle3
										{
											OFFSET 3.312172 0.000000 0.000000
											CHANNELS 3 Xrotation Yrotation Zrotation
											End Site
											{
												OFFSET -1.150200 3.080154 0.400270
											}
										}
									}
								}
								JOINT LeftHandRing1
								{
									OFFSET 11.514786 -0.013176 -3.003090
									CHANNELS 3 Xrotation Yrotation Zrotation
									JOINT LeftHandRing2
									{
										OFFSET 3.053307 0.000000 0.000000
										CHANNELS 3 Xrotation Yrotation Zrotation
										JOINT LeftHandRing3
										{
											OFFSET 3.295807 0.000000 0.000000
											CHANNELS 3 Xrotation Yrotation Zrotation
											End Site
											{
												OFFSET -1.281006 3.013344 0.375733
											}
										}
									}
								}
								JOINT LeftHandPinky1
								{
									OFFSET 10.518692 -0.960396 -5.730441
									CHANNELS 3 Xrotation Yrotation Zrotation
									JOINT LeftHandPinky2
									{
										OFFSET 2.861649 0.000000 0.000000
										CHANNELS 3 Xrotation Yrotation Zrotation
										JOINT LeftHandPinky3
										{
											OFFSET 2.863380 0.000000 0.000000
											CHANNELS 3 Xrotation Yrotation Zrotation
											End Site
											{
												OFFSET -0.843597 2.711159 0.369971
											}
										}
									}
								}
							}
							JOINT LSleeve
							{
								OFFSET 6.676277 -0.344902 -1.011730
								CHANNELS 3 Xrotation Yrotation Zrotation
								End Site
								{
									OFFSET 0.000000 14.885353 0.000000
								}
							}
						}
					}
				}
				JOINT RightShoulder
				{
					OFFSET -6.197800 13.665199 -4.064700
					CHANNELS 3 Xrotation Yrotation Zrotation
					JOINT RightArm
					{
						OFFSET -7.778100 -0.187103 -1.709300
						CHANNELS 3 Xrotation Yrotation Zrotation
						JOINT RightForeArm
						{
							OFFSET -22.049376 0.000000 0.000000
							CHANNELS 3 Xrotation Yrotation Zrotation
							JOINT RightHand
							{
								OFFSET -23.009392 0.000000 0.000000
								CHANNELS 3 Xrotation Yrotation Zrotation
								JOINT RightHandThumb1
								{
									OFFSET -3.507191 -2.063065 3.133727
									CHANNELS 3 Xrotation Yrotation Zrotation
									JOINT RightHandThumb2
									{
										OFFSET -3.101337 -1.790558 1.790558
										CHANNELS 3 Xrotation Yrotation Zrotation
										JOINT RightHandThumb3
										{
											OFFSET -3.058640 -1.765907 1.765906
											CHANNELS 3 Xrotation Yrotation Zrotation
											End Site
											{
												OFFSET 0.415260 3.926476 -0.049563
											}
										}
									}
								}
								JOINT RightHandIndex1
								{
									OFFSET -11.334419 -0.901459 3.706815
									CHANNELS 3 Xrotation Yrotation Zrotation
									JOINT RightHandIndex2
									{
										OFFSET -3.283112 0.000000 0.000000
										CHANNELS 3 Xrotation Yrotation Zrotation
										JOINT RightHandIndex3
										{
											OFFSET -3.323853 0.000000 0.000000
											CHANNELS 3 Xrotation Yrotation Zrotation
											End Site
											{
												OFFSET 1.135597 3.097809 0.402452
											}
										}
									}
								}
								JOINT RightHandMiddle1
								{
									OFFSET -11.335861 0.000000 0.000000
									CHANNELS 3 Xrotation Yrotation Zrotation
									JOINT RightHandMiddle2
									{
										OFFSET -3.410492 0.000000 0.000000
										CHANNELS 3 Xrotation Yrotation Zrotation
										JOINT RightHandMiddle3
										{
											OFFSET -3.312172 0.000000 0.000000
											CHANNELS 3 Xrotation Yrotation Zrotation
											End Site
											{
												OFFSET 1.150200 3.080154 0.400270
											}
										}
									}
								}
								JOINT RightHandRing1
								{
									OFFSET -11.514786 -0.013176 -3.003090
									CHANNELS 3 Xrotation Yrotation Zrotation
									JOINT RightHandRing2
									{
										OFFSET -3.053307 0.000000 0.000000
										CHANNELS 3 Xrotation Yrotation Zrotation
										JOINT RightHandRing3
										{
											OFFSET -3.295807 0.000000 0.000000
											CHANNELS 3 Xrotation Yrotation Zrotation
											End Site
											{
												OFFSET 1.281006 3.013344 0.375733
											}
										}
									}
								}
								JOINT RightHandPinky1
								{
									OFFSET -10.518692 -0.960396 -5.730441
									CHANNELS 3 Xrotation Yrotation Zrotation
									JOINT RightHandPinky2
									{
										OFFSET -2.861649 0.000000 0.000000
										CHANNELS 3 Xrotation Yrotation Zrotation
										JOINT RightHandPinky3
										{
											OFFSET -2.863380 0.000000 0.000000
											CHANNELS 3 Xrotation Yrotation Zrotation
											End Site
											{
												OFFSET 0.843597 2.711159 0.369971
											}
										}
									}
								}
							}
							JOINT RSleeve
							{
								OFFSET -6.676277 -0.344902 -1.011730
								CHANNELS 3 Xrotation Yrotation Zrotation
								End Site
								{
									OFFSET 0.000000 14.885353 0.000000
								}
							}
						}
					}
				}
				JOINT Backpack
				{
					OFFSET 0.000000 -2.471497 36.677502
					CHANNELS 3 Xrotation Yrotation Zrotation
					End Site
					{
						OFFSET 0.000000 20.427315 0.000000
					}
				}
				JOINT Hood
				{
					OFFSET 0.000000 18.754097 -10.431000
					CHANNELS 3 Xrotation Yrotation Zrotation
					JOINT Hood1
					{
						OFFSET 0.000000 -5.011002 -7.685901
						CHANNELS 3 Xrotation Yrotation Zrotation
						End Site
						{
							OFFSET 0.000000 9.175140 0.000000
						}
					}
				}
				JOINT LHoodieString
				{
					OFFSET 5.250500 16.397697 3.089900
					CHANNELS 3 Xrotation Yrotation Zrotation
					JOINT LHoodieString1
					{
						OFFSET 0.257700 -6.364304 3.694600
						CHANNELS 3 Xrotation Yrotation Zrotation
						JOINT LHoodieString2
						{
							OFFSET 0.000000 -9.643799 2.679100
							CHANNELS 3 Xrotation Yrotation Zrotation
							End Site
							{
								OFFSET 0.000000 10.009018 0.000000
							}
						}
					}
				}
				JOINT RHoodieString
				{
					OFFSET -5.250500 16.397697 3.089900
					CHANNELS 3 Xrotation Yrotation Zrotation
					JOINT RHoodieString1
					{
						OFFSET -0.257700 -6.364304 3.694600
						CHANNELS 3 Xrotation Yrotation Zrotation
						JOINT RHoodieString2
						{
							OFFSET 0.000000 -9.643799 2.679100
							CHANNELS 3 Xrotation Yrotation Zrotation
							End Site
							{
								OFFSET 0.000000 10.009018 0.000000
							}
						}
					}
				}
			}
			JOINT LBackpack_Strap
			{
				OFFSET 15.223200 -7.719803 -6.610900
				CHANNELS 3 Xrotation Yrotation Zrotation
				End Site
				{
					OFFSET 0.000000 16.040596 0.000000
				}
			}
			JOINT RBackpack_Strap
			{
				OFFSET -15.223000 -7.719803 -6.610900
				CHANNELS 3 Xrotation Yrotation Zrotation
				End Site
				{
					OFFSET 0.000000 16.040596 0.000000
				}
			}
		}
	}
	JOINT BoyFacialAnim_Joint
	{
		OFFSET 1.000000 -82.208099 -1.550900
		CHANNELS 3 Xrotation Yrotation Zrotation
		End Site
		{
			OFFSET 0.000000 30.012791 0.000000
		}
	}
}
MOTION
Frames: 4
Frame Time: 0.033333
-0.169132 73.868149 0.175022 3.016503 -58.257347 6.570137 -0.000000 0.000001 -0.000000 -35.248294 10.179259 24.280271 43.157821 -7.473934 -9.787719 -9.604871 -2.815505 -8.045103 -0.000000 0.000001 -0.000000 -0.000000 0.000001 -0.000000 -0.000000 0.000004 -0.000000 -32.837022 -8.277300 -25.536278 48.053779 2.410421 -7.553321 -19.170219 2.844937 20.705736 0.000000 0.000001 0.000000 0.000000 0.000001 0.000000 -0.000000 0.000001 0.000001 11.191558 0.111596 -2.787679 8.434585 0.027683 -5.592325 8.457047 0.027851 -5.591859 -21.556149 25.063297 12.062712 -0.293667 25.465771 -3.208874 0.000001 -0.000000 -0.000000 0.000001 -0.000000 -0.000000 0.000001 -0.000000 -0.000000 -6.221649 -11.503762 -4.023766 -23.062246 9.568415 -36.639658 0.046112 -43.168892 -0.011140 22.743782 -5.686010 15.979299 -1.064228 -7.954943 8.490081 2.373396 19.986131 -2.038326 0.000002 0.000000 -0.000000 13.340862 -1.006674 10.682289 -0.167585 0.303352 -31.105672 -0.000003 0.000002 0.000000 8.495423 -0.329561 -0.915332 0.231513 0.661237 -29.901841 -0.000000 0.000000 0.000006 6.111722 3.150934 -16.210947 0.047057 0.322404 -30.125468 0.000000 -0.000002 -0.000002 -5.636033 7.709822 -13.878617 0.224354 0.276599 -46.588338 -0.000001 -0.000001 -0.000002 0.000002 0.000002 0.000000 -5.488230 10.658298 2.466471 -41.473872 -26.755596 30.079030 24.955706 111.862878 -23.308767 -8.702495 12.423154 -9.801879 0.265002 10.061106 -10.888477 1.383787 -17.412848 3.016269 0.000001 0.000001 0.000001 19.443611 11.174477 -13.340208 -0.118645 -0.322752 18.035613 -0.000000 -0.000002 -0.000000 4.320469 2.436985 -4.811726 0.349112 -0.461276 26.890327 0.000004 0.000000 0.000005 -7.005591 -10.695165 5.719853 0.111885 -0.089170 26.155888 -0.000000 0.000000 0.000002 -19.433515 -20.238240 5.987878 0.223815 -0.085782 36.844595 -0.000005 0.000001 0.000000 0.000000 0.000002 0.000003 0.000003 -0.000002 0.000002 0.000003 -0.000002 0.000002 0.000003 -0.000002 0.000002 0.000003 -0.000002 0.000002 0.000003 -0.000002 0.000003 0.000001 0.000001 -0.000000 0.000003 -0.000002 0.000002 0.000003 -0.000002 0.000003 0.000001 0.000001 -0.000000 -0.000001 -0.000002 0.000002 -0.000001 -0.000002 0.000002 -0.000000 0.000001 -0.000000 
-0.238229 73.812347 0.355210 5.842014 -55.292813 7.404747 -0.000000 0.000001 0.000000 -39.110838 9.847189 25.040624 43.851706 -10.232771 -9.026419 -9.241489 -3.211244 -7.155753 0.000000 0.000001 -0.000000 0.000000 0.000001 -0.000000 -0.000001 -0.000001 0.000000 -32.555072 -9.013246 -23.990792 47.178733 0.448651 -7.626339 -19.172573 1.265129 21.596175 -0.000000 -0.000000 -0.000000 -0.000000 -0.000000 -0.000000 -0.000000 -0.000000 0.000000 11.213475 0.238779 -3.181067 8.106928 0.259764 -4.984512 8.144967 0.225651 -5.076745 -28.260142 23.438880 14.685038 2.658812 27.605068 -3.597172 -0.000000 0.000000 0.000001 -0.000000 0.000000 0.000001 -0.000000 0.000000 0.000001 -6.460924 -10.373749 -3.944805 -24.358779 9.607797 -35.368130 0.044635 -46.407840 -0.010666 22.997821 -4.062874 15.112038 -1.326953 -9.380253 7.945819 1.902057 18.679970 -2.551957 0.000001 0.000001 0.000000 13.335344 -1.000802 12.216207 -0.169106 0.302398 -29.571816 -0.000002 -0.000001 -0.000000 8.512531 -0.348125 0.618307 0.228380 0.655970 -28.368021 0.000001 0.000001 -0.000001 6.128061 3.134138 -14.677827 0.043665 0.312200 -28.591662 0.000000 0.000003 0.000002 -5.613607 7.701483 -12.342649 0.218310 0.274664 -45.054551 0.000001 -0.000001 -0.000000 0.000002 0.000000 -0.000002 -6.768817 13.365472 2.470085 -40.518024 -26.958232 29.429482 7.276149 106.753951 -6.441733 -8.648185 12.470194 -10.057054 0.120194 11.090439 -10.497352 1.029038 -16.481815 3.392979 -0.000000 0.000001 0.000002 19.432088 11.173539 -14.443603 -0.119600 -0.321546 16.934402 0.000001 -0.000002 0.000003 4.338385 2.446816 -5.913231 0.345764 -0.459058 25.789169 0.000002 0.000003 0.000000 -6.996735 -10.685653 4.613156 0.112023 -0.084706 25.054637 -0.000002 -0.000003 0.000007 -19.404315 -20.209295 4.888226 0.220511 -0.081672 35.743422 -0.000004 -0.000002 0.000002 0.000001 0.000002 0.000001 -0.000000 -0.000003 0.000001 -0.000000 -0.000003 0.000001 -0.000000 -0.000003 0.000001 -0.000000 -0.000003 0.000001 -0.000000 -0.000003 -0.000000 -0.000001 -0.000001 -0.000000 -0.000000 -0.000003 0.000001 -0.000000 -0.000003 -0.000000 -0.000001 -0.000001 -0.000000 0.000002 0.000000 -0.000000 0.000002 0.000000 -0.000000 -0.000000 0.000001 0.000000 
-0.513134 74.310287 1.126958 7.544733 -53.206139 7.777291 -0.000000 -0.000001 0.000000 -39.963471 9.109396 24.502971 43.094051 -10.465673 -8.635337 -9.012364 -3.745158 -7.028829 -0.000000 0.000001 -0.000000 -0.000000 0.000001 -0.000000 -0.000001 0.000001 -0.000000 -30.670387 -10.087482 -23.250768 43.874178 -0.830015 -7.396729 -18.219009 0.477229 22.494284 -0.000000 0.000002 -0.000000 -0.000000 0.000002 -0.000000 -0.000002 -0.000003 0.000002 11.571611 0.372208 -4.150881 8.098906 0.581930 -5.529350 7.471776 0.583233 -5.599878 -31.329456 21.762916 15.117162 -8.031304 26.662038 0.986668 -0.000000 -0.000000 -0.000000 -0.000000 -0.000000 -0.000000 -0.000000 -0.000000 -0.000000 -5.725725 -11.362729 -3.438140 -24.174573 8.963625 -35.047446 0.044149 -49.916805 -0.009507 23.465680 -3.945506 15.887575 -1.711938 -11.400559 7.163309 1.233380 16.828350 -3.295823 -0.000001 -0.000000 0.000000 13.316269 -0.992795 14.391210 -0.171224 0.297081 -27.396423 -0.000001 0.000001 -0.000002 8.535477 -0.373973 2.793501 0.223379 0.648192 -26.192662 0.000000 0.000002 -0.000003 6.151991 3.111092 -12.503805 0.037247 0.297622 -26.416368 0.000000 0.000001 -0.000005 -5.592812 7.689403 -10.166740 0.209936 0.272101 -42.879166 -0.000002 0.000000 -0.000000 -0.000001 -0.000001 0.000004 -6.524205 10.361354 2.529729 -38.637953 -32.615157 32.773809 24.711365 104.880703 -22.386696 -8.538108 12.546097 -10.569547 -0.104354 12.641209 -9.904575 0.497803 -15.081421 3.975406 -0.000000 -0.000002 -0.000001 19.413049 11.170576 -16.102284 -0.121006 -0.315681 15.275843 0.000000 0.000001 -0.000001 4.365678 2.461078 -7.572448 0.346845 -0.454068 24.130594 0.000004 0.000002 0.000000 -6.980230 -10.666222 2.952538 0.112532 -0.078255 23.396133 -0.000001 0.000001 0.000006 -19.369599 -20.179801 3.233871 0.219696 -0.075473 34.084819 -0.000003 0.000001 0.000002 0.000000 -0.000001 -0.000001 -0.000002 -0.000003 0.000001 -0.000002 -0.000003 0.000001 -0.000002 -0.000003 0.000001 -0.000002 -0.000003 0.000001 -0.000002 -0.000003 0.000002 -0.000004 0.000001 0.000001 -0.000002 -0.000003 0.000001 -0.000002 -0.000003 0.000002 -0.000004 0.000001 0.000001 0.000001 -0.000001 -0.000001 0.000001 -0.000001 -0.000001 -0.000000 -0.000001 0.000000 
-0.470461 75.239395 1.986957 9.787259 -51.349755 8.251827 -0.000000 -0.000001 -0.000000 -41.082095 9.890280 23.849670 41.173620 -10.934514 -7.177053 -8.455028 -4.686158 -6.862017 -0.000000 0.000000 0.000000 -0.000000 0.000000 0.000000 -0.000000 -0.000003 0.000000 -28.221891 -11.426525 -22.088588 38.080036 -2.015063 -6.860019 -15.660627 0.066069 23.194375 0.000000 -0.000002 -0.000000 0.000000 -0.000002 -0.000000 -0.000000 -0.000000 -0.000003 12.564049 0.496327 -5.605284 9.322502 1.045295 -7.270711 8.416463 1.088039 -7.294711 -30.614964 18.181567 14.039962 -23.637236 20.926079 7.816889 0.000001 0.000000 -0.000000 0.000001 0.000000 -0.000000 0.000001 0.000000 -0.000000 -4.065286 -13.274464 -1.476927 -24.597255 5.753456 -30.254429 0.043747 -53.028977 -0.008550 23.269167 -4.484360 16.845383 -2.143976 -13.527423 6.317244 0.508213 14.883033 -4.096298 -0.000002 -0.000001 -0.000001 13.303560 -0.984676 16.685939 -0.173371 0.287326 -25.101208 -0.000000 -0.000001 -0.000004 8.560614 -0.400648 5.088631 0.218508 0.639418 -23.897421 0.000001 -0.000002 -0.000004 6.169904 3.087783 -10.209933 0.034649 0.282328 -24.121180 0.000001 0.000002 -0.000005 -5.588594 7.676538 -7.873565 0.201417 0.267861 -40.583895 -0.000001 0.000002 0.000004 0.000000 0.000002 0.000001 -5.363427 9.797005 2.615565 -36.754109 -41.053453 38.090199 47.628255 107.259631 -43.042110 -8.275875 12.722015 -11.776172 -0.379937 14.443641 -9.206812 -0.127129 -13.454343 4.662209 -0.000000 0.000001 -0.000001 19.406048 11.166245 -18.030477 -0.122533 -0.309294 13.346823 -0.000002 0.000001 0.000002 4.393845 2.476595 -9.502449 0.345409 -0.447251 22.201603 0.000002 0.000000 0.000003 -6.964682 -10.650593 1.024688 0.113556 -0.069267 21.467105 -0.000001 0.000000 -0.000001 -19.356319 -20.168010 1.306348 0.217597 -0.067970 32.155827 -0.000000 0.000000 -0.000001 -0.000002 0.000001 -0.000000 -0.000000 -0.000003 0.000002 -0.000000 -0.000003 0.000002 -0.000000 -0.000003 0.000002 -0.000000 -0.000003 0.000002 -0.000000 -0.000003 0.000003 -0.000002 0.000000 -0.000001 -0.000000 -0.000003 0.000002 -0.000000 -0.000003 0.000003 -0.000002 0.000000 -0.000001 0.000002 0.000000 0.000001 0.000002 0.000000 0.000001 -0.000000 -0.000001 -0.000000 
